# xmcd
# 
# Track frame offsets:
#     150
#     22560
#     50357
#     77900
#     104830
#     122585
#     143270
# 
# Disc length: 2456
# 
# Revision: 1
# Processed by: cddbd v1.5.2PL0 Copyright (c) Steve Scherf et al.
# Submitted via: BonkEnc v1.0.8
# 
DISCID=4c099607
DTITLE=カンカワ - Cat Club
DYEAR=1995
DGENRE=Fusion
TTITLE0=Regina
TTITLE1=Jam Jam
TTITLE2=Look Into The Sky
TTITLE3=Cat Club
TTITLE4=Escape A Way
TTITLE5=Lagos Street Life
TTITLE6=Passion - Ai
EXTD=YEAR: 1995
EXTT0=
EXTT1=
EXTT2=
EXTT3=
EXTT4=
EXTT5=
EXTT6=
PLAYORDER=
